<?xml version="1.0" encoding="UTF-8"?>
<svg id="Layer_1" xmlns="http://www.w3.org/2000/svg" version="1.1" viewBox="0 0 1000 196.28">
 <g>
 <path d="M17.28,179.41V19.97h103.18v25.51H44.61v41.45h59.45v25.51h-59.45v66.97h-27.33Z"/>
 <path d="M132.76,99.69c0-55.58,41-83.36,82.23-83.36s82,27.79,82,83.36-41,83.37-82,83.37-82.23-27.79-82.23-83.37ZM159.64,99.69c0,37.35,27.56,55.8,55.35,55.8s55.35-18.45,55.35-55.8-27.79-55.8-55.35-55.8-55.35,18.45-55.35,55.8Z"/>
 <path d="M401.53,16.55c16.85,0,33.94,5.92,47.6,16.17l-15.94,22.32c-6.61-5.92-17.99-11.39-31.43-11.39-71.75,0-71.75,112.06,0,112.06,17.08,0,26.42-6.38,31.43-10.93l15.94,21.87c-12.98,10.71-26.65,16.17-47.6,16.17-109.56,0-109.56-166.27,0-166.27Z"/>
 <path d="M479.2,19.97h27.33v98.85c0,24.83,18.68,37.13,37.13,37.13s37.13-12.3,37.13-37.13V19.97h27.33v98.85c0,43.96-32.12,66.05-64.46,66.05s-64.46-22.09-64.46-66.05V19.97Z"/>
 <path d="M657.09,141.6c9.79,13.44,26.19,17.54,41.91,17.54,12.07,0,30.07-4.56,30.07-19.59,0-30.52-88.6-27.33-88.6-79.49,0-31.2,25.97-46.69,54.67-46.69,20.73,0,41.23,8.88,56.03,23.46l-17.99,20.04c-10.48-10.48-24.14-16.63-38.95-16.63-13.67,0-26.88,5.01-26.88,20.73,0,27.33,88.6,23.69,88.6,79.49,0,30.98-30.52,45.55-57.85,45.55-23.46,0-47.6-8.43-62.18-27.79l21.18-16.63Z"/>
 <path d="M860.49,19.97l48.06,104.32,48.06-104.32h28.24l-74.03,161.72h-4.55l-74.25-161.72h28.47Z"/>
 </g>
 <rect x="185.26" y="86.93" width="59.45" height="25.51"/>
</svg>
